# Blender v2.76 (sub 0) OBJ File: ''
# www.blender.org
mtllib plane_small.mtl
o Grid_Grid.001
v -1.411348 -0.024007 1.300779
v -0.744682 -0.024007 1.300779
v -0.078015 -0.024007 1.300779
v 0.588652 -0.024007 1.300779
v -1.411348 -0.024007 0.634112
v -0.744682 -0.024007 0.634112
v -0.078015 -0.024007 0.634112
v 0.588652 -0.024007 0.634112
v -1.411348 -0.024007 -0.032554
v -0.744682 -0.024007 -0.032554
v -0.078015 -0.024007 -0.032554
v 0.588652 -0.024007 -0.032554
v -1.411348 -0.024007 -0.699221
v -0.744682 -0.024007 -0.699221
v -0.078015 -0.024007 -0.699221
v 0.588652 -0.024007 -0.699221
vn 0.000000 1.000000 0.000000
usemtl None
s off
f 2//1 6//1 5//1
f 3//1 7//1 6//1
f 4//1 8//1 7//1
f 6//1 10//1 9//1
f 7//1 11//1 10//1
f 8//1 12//1 11//1
f 10//1 14//1 13//1
f 11//1 15//1 14//1
f 12//1 16//1 15//1
f 1//1 2//1 5//1
f 2//1 3//1 6//1
f 3//1 4//1 7//1
f 5//1 6//1 9//1
f 6//1 7//1 10//1
f 7//1 8//1 11//1
f 9//1 10//1 13//1
f 10//1 11//1 14//1
f 11//1 12//1 15//1
